<?xml version="1.0" encoding="utf-8"?>
<!-- Generator: Adobe Illustrator 23.0.2, SVG Export Plug-In . SVG Version: 6.00 Build 0)  -->
<svg version="1.1" id="logo-54" xmlns="http://www.w3.org/2000/svg" xmlns:xlink="http://www.w3.org/1999/xlink" x="0px" y="0px"
	 viewBox="0 0 42 41" style="enable-background:new 0 0 42 41;" xml:space="preserve">
<style type="text/css">
	.st0{fill-rule:evenodd;clip-rule:evenodd;fill:#2563EB;}
</style>
<path class="st0" d="M21.4,40.5c11,0,20-9,20-20c0-11-9-20-20-20c-11,0-20,9-20,20C1.4,31.5,10.4,40.5,21.4,40.5z M27.6,9.8
	c0.3-1.1-0.7-1.7-1.7-1l-13.3,9.5c-1,0.7-0.9,2.2,0.2,2.2h3.5v0h6.8l-5.6,2l-2.5,8.7c-0.3,1.1,0.7,1.7,1.7,1l13.3-9.5
	c1-0.7,0.9-2.2-0.2-2.2h-5.3L27.6,9.8z"/>
</svg>
